<svg width="1024" height="1024" viewBox="0 0 1024 1024" xmlns="http://www.w3.org/2000/svg">
  <defs>
    <linearGradient id="bg" x1="0" y1="0" x2="1" y2="1">
      <stop offset="0%" stop-color="#09111f"/>
      <stop offset="100%" stop-color="#172033"/>
    </linearGradient>
    <linearGradient id="arm" x1="0" y1="0" x2="1" y2="1">
      <stop offset="0%" stop-color="#22d3ee"/>
      <stop offset="100%" stop-color="#bef264"/>
    </linearGradient>
  </defs>
  <rect x="64" y="64" width="896" height="896" rx="220" fill="url(#bg)"/>
  <path d="M360 708c-52 0-94-42-94-94 0-25 10-49 28-66l122-118c20-20 48-31 77-31h82c64 0 119 46 130 109l8 46c4 21-3 42-18 57l-84 84c-15 15-37 22-58 18l-47-8c-32-6-65 4-88 27-15 15-35 23-58 23z" fill="url(#arm)"/>
  <path d="M466 398c36-44 91-72 152-72 108 0 196 88 196 196 0 14-2 29-5 42" fill="none" stroke="#ffffff" stroke-width="32" stroke-linecap="round"/>
  <circle cx="808" cy="530" r="32" fill="#ffffff"/>
  <path d="M446 506h110c36 0 66 25 74 60l7 30" fill="none" stroke="#0a1020" stroke-width="22" stroke-linecap="round" opacity="0.22"/>
</svg>