<svg width="1024" height="1024" viewBox="0 0 1024 1024" xmlns="http://www.w3.org/2000/svg">
  <defs>
    <linearGradient id="bg" x1="0" y1="0" x2="1" y2="1">
      <stop offset="0%" stop-color="#0b1220"/>
      <stop offset="100%" stop-color="#131c2e"/>
    </linearGradient>
    <linearGradient id="acc" x1="0" y1="0" x2="1" y2="1">
      <stop offset="0%" stop-color="#c6ff2f"/>
      <stop offset="100%" stop-color="#00d9ff"/>
    </linearGradient>
  </defs>
  <rect x="64" y="64" width="896" height="896" rx="220" fill="url(#bg)"/>
  <rect x="268" y="190" width="488" height="644" rx="56" fill="none" stroke="#ffffff" stroke-width="28"/>
  <rect x="324" y="308" width="260" height="36" rx="18" fill="url(#acc)"/>
  <rect x="324" y="404" width="376" height="28" rx="14" fill="#7dd3fc" opacity="0.9"/>
  <rect x="324" y="486" width="320" height="28" rx="14" fill="#7dd3fc" opacity="0.75"/>
  <rect x="324" y="568" width="284" height="28" rx="14" fill="#7dd3fc" opacity="0.6"/>
  <path d="M618 690c44 0 80-34 80-76s-36-76-80-76c-43 0-77 34-77 76s34 76 77 76z" fill="none" stroke="url(#acc)" stroke-width="28"/>
  <path d="M584 616l26 26 44-54" fill="none" stroke="#ffffff" stroke-width="24" stroke-linecap="round" stroke-linejoin="round"/>
</svg>