<svg width="1024" height="1024" viewBox="0 0 1024 1024" xmlns="http://www.w3.org/2000/svg">
  <defs>
    <linearGradient id="bg" x1="0" y1="0" x2="1" y2="1">
      <stop offset="0%" stop-color="#0f172a"/>
      <stop offset="100%" stop-color="#111827"/>
    </linearGradient>
    <linearGradient id="neon" x1="0" y1="0" x2="1" y2="1">
      <stop offset="0%" stop-color="#b7ff00"/>
      <stop offset="100%" stop-color="#00e5ff"/>
    </linearGradient>
  </defs>
  <rect x="64" y="64" width="896" height="896" rx="220" fill="url(#bg)"/>
  <rect x="240" y="250" width="544" height="500" rx="56" fill="none" stroke="url(#neon)" stroke-width="36"/>
  <line x1="340" y1="180" x2="340" y2="300" stroke="#00e5ff" stroke-width="36" stroke-linecap="round"/>
  <line x1="684" y1="180" x2="684" y2="300" stroke="#00e5ff" stroke-width="36" stroke-linecap="round"/>
  <line x1="320" y1="420" x2="452" y2="420" stroke="#b7ff00" stroke-width="42" stroke-linecap="round"/>
  <line x1="320" y1="520" x2="436" y2="520" stroke="#b7ff00" stroke-width="42" stroke-linecap="round"/>
  <line x1="320" y1="620" x2="420" y2="620" stroke="#b7ff00" stroke-width="42" stroke-linecap="round"/>
  <path d="M680 560c0-72-47-120-112-120-65 0-112 48-112 120s47 120 112 120" fill="none" stroke="#ffffff" stroke-width="34" stroke-linecap="round"/>
  <circle cx="668" cy="560" r="26" fill="#ffffff"/>
</svg>