<svg width="1024" height="1024" viewBox="0 0 1024 1024" xmlns="http://www.w3.org/2000/svg">
  <defs>
    <linearGradient id="bg" x1="0" y1="0" x2="1" y2="1">
      <stop offset="0%" stop-color="#101826"/>
      <stop offset="100%" stop-color="#0a1020"/>
    </linearGradient>
    <linearGradient id="arm" x1="0" y1="0" x2="1" y2="1">
      <stop offset="0%" stop-color="#22d3ee"/>
      <stop offset="100%" stop-color="#bef264"/>
    </linearGradient>
  </defs>
  <rect x="64" y="64" width="896" height="896" rx="220" fill="url(#bg)"/>
  <path d="M336 716c-46 0-84-38-84-84 0-22 9-43 24-58l102-102c20-20 47-32 76-32h72c58 0 108 42 116 100l8 50c3 18-3 36-16 49l-60 60c-12 12-29 18-46 15l-50-8c-28-5-56 4-76 24-12 12-28 18-44 18z" fill="url(#arm)"/>
  <path d="M438 404c22-67 86-116 161-116 95 0 172 77 172 172 0 17-2 34-7 50" fill="none" stroke="#ffffff" stroke-width="34" stroke-linecap="round"/>
  <circle cx="768" cy="518" r="36" fill="#ffffff"/>
  <path d="M430 516h112c28 0 53 19 60 46l10 40" fill="none" stroke="#0b1220" stroke-width="20" stroke-linecap="round" opacity="0.24"/>
  <path d="M304 362c26-20 55-35 86-44" fill="none" stroke="#22d3ee" stroke-width="18" stroke-linecap="round"/>
</svg>