<svg width="1024" height="1024" viewBox="0 0 1024 1024" xmlns="http://www.w3.org/2000/svg">
  <defs>
    <linearGradient id="bg" x1="0" y1="0" x2="1" y2="1">
      <stop offset="0%" stop-color="#0b1220"/>
      <stop offset="100%" stop-color="#101826"/>
    </linearGradient>
    <linearGradient id="arm" x1="0" y1="0" x2="1" y2="1">
      <stop offset="0%" stop-color="#c6ff2f"/>
      <stop offset="100%" stop-color="#00d8ff"/>
    </linearGradient>
  </defs>
  <rect x="64" y="64" width="896" height="896" rx="220" fill="url(#bg)"/>
  <path d="M340 724c-48 0-88-40-88-88 0-25 10-48 28-65l125-119c20-19 47-30 75-30h78c71 0 131 51 144 121l8 43c4 22-3 44-19 60l-79 79c-16 16-38 23-60 19l-43-8c-34-7-69 3-93 27-14 14-34 21-54 21z" fill="url(#arm)"/>
  <path d="M446 430c42-56 108-92 182-92 122 0 220 98 220 220 0 8 0 15-1 23" fill="none" stroke="#ffffff" stroke-width="34" stroke-linecap="round"/>
  <circle cx="846" cy="582" r="30" fill="#ffffff"/>
  <path d="M432 510h116c38 0 71 26 79 63l7 34" fill="none" stroke="#0a1020" stroke-width="24" stroke-linecap="round" opacity="0.25"/>
  <path d="M596 426c-10-28-33-46-62-46-31 0-58 20-67 49" fill="none" stroke="#ffffff" stroke-width="18" stroke-linecap="round" opacity="0.75"/>
</svg>