<svg width="1024" height="1024" viewBox="0 0 1024 1024" xmlns="http://www.w3.org/2000/svg">
  <defs>
    <linearGradient id="bg" x1="0" y1="0" x2="1" y2="1">
      <stop offset="0%" stop-color="#0b1020"/>
      <stop offset="100%" stop-color="#172033"/>
    </linearGradient>
    <linearGradient id="accent" x1="0" y1="0" x2="1" y2="1">
      <stop offset="0%" stop-color="#c4ff2f"/>
      <stop offset="100%" stop-color="#00d8ff"/>
    </linearGradient>
  </defs>
  <rect x="64" y="64" width="896" height="896" rx="220" fill="url(#bg)"/>
  <path d="M314 620c0-110 78-174 166-174 67 0 118 24 158 76 26 34 72 44 111 23 7-4 15 1 16 10 4 57-12 114-46 157-42 54-103 82-187 82-135 0-218-63-218-174z" fill="url(#accent)"/>
  <path d="M464 404c18-48 56-88 120-104" stroke="#ffffff" stroke-width="34" stroke-linecap="round"/>
  <circle cx="690" cy="420" r="42" fill="#ffffff"/>
  <path d="M322 318l82 82" stroke="#7cff6b" stroke-width="30" stroke-linecap="round"/>
  <path d="M722 706l66 66" stroke="#00e5ff" stroke-width="30" stroke-linecap="round"/>
</svg>