<svg width="1024" height="1024" viewBox="0 0 1024 1024" xmlns="http://www.w3.org/2000/svg">
  <defs>
    <linearGradient id="bg" x1="0" y1="0" x2="1" y2="1">
      <stop offset="0%" stop-color="#0a1020"/>
      <stop offset="100%" stop-color="#121b2c"/>
    </linearGradient>
    <linearGradient id="acc" x1="0" y1="0" x2="1" y2="1">
      <stop offset="0%" stop-color="#c6ff2f"/>
      <stop offset="100%" stop-color="#00d8ff"/>
    </linearGradient>
  </defs>
  <rect x="64" y="64" width="896" height="896" rx="220" fill="url(#bg)"/>
  <circle cx="512" cy="512" r="240" fill="none" stroke="url(#acc)" stroke-width="38"/>
  <path d="M512 332v188" stroke="#ffffff" stroke-width="34" stroke-linecap="round"/>
  <path d="M512 512l138 82" stroke="#ffffff" stroke-width="34" stroke-linecap="round"/>
  <rect x="238" y="470" width="98" height="84" rx="24" fill="#00d8ff"/>
  <rect x="688" y="470" width="98" height="84" rx="24" fill="#c6ff2f"/>
  <rect x="324" y="490" width="116" height="42" rx="21" fill="#ffffff"/>
  <rect x="584" y="490" width="116" height="42" rx="21" fill="#ffffff"/>
  <circle cx="512" cy="512" r="30" fill="#ffffff"/>
  <path d="M380 720c36-28 82-42 132-42s96 14 132 42" fill="none" stroke="url(#acc)" stroke-width="26" stroke-linecap="round"/>
</svg>