<svg width="1024" height="1024" viewBox="0 0 1024 1024" xmlns="http://www.w3.org/2000/svg">
  <defs>
    <linearGradient id="bg" x1="0" y1="0" x2="1" y2="1">
      <stop offset="0%" stop-color="#0b1220"/>
      <stop offset="100%" stop-color="#111827"/>
    </linearGradient>
    <linearGradient id="acc" x1="0" y1="0" x2="1" y2="1">
      <stop offset="0%" stop-color="#22d3ee"/>
      <stop offset="100%" stop-color="#bef264"/>
    </linearGradient>
  </defs>
  <rect x="64" y="64" width="896" height="896" rx="220" fill="url(#bg)"/>
  <path d="M278 616c0-126 87-210 197-210 84 0 149 33 196 99 18 25 52 33 81 18l62-32c18-9 38 3 39 23 4 68-15 133-61 187-53 62-128 94-228 94-176 0-286-73-286-179z" fill="url(#acc)"/>
  <path d="M446 402c24-56 77-104 159-122" fill="none" stroke="#ffffff" stroke-width="32" stroke-linecap="round"/>
  <circle cx="730" cy="430" r="38" fill="#ffffff"/>
  <path d="M332 648c40 20 90 28 140 22 94-12 151-67 190-145" fill="none" stroke="#ffffff" stroke-width="24" stroke-linecap="round" opacity="0.9"/>
  <rect x="248" y="284" width="110" height="24" rx="12" fill="#22d3ee"/>
  <rect x="684" y="742" width="110" height="24" rx="12" fill="#bef264"/>
</svg>