<svg width="1024" height="1024" viewBox="0 0 1024 1024" xmlns="http://www.w3.org/2000/svg">
  <defs>
    <linearGradient id="bg" x1="0" y1="0" x2="1" y2="1">
      <stop offset="0%" stop-color="#09111f"/>
      <stop offset="100%" stop-color="#172033"/>
    </linearGradient>
    <linearGradient id="arm" x1="0" y1="0" x2="1" y2="1">
      <stop offset="0%" stop-color="#c6ff2f"/>
      <stop offset="100%" stop-color="#00d8ff"/>
    </linearGradient>
  </defs>
  <rect x="64" y="64" width="896" height="896" rx="220" fill="url(#bg)"/>
  <path d="M332 706c-40 0-72-32-72-72 0-20 8-39 22-53l110-110c20-20 47-31 75-31h58c67 0 124 47 138 112l10 45c4 19-2 40-16 54l-68 68c-14 14-35 20-54 16l-45-10c-31-7-63 2-85 24-14 14-33 21-53 21z" fill="url(#arm)"/>
  <path d="M446 396c29-61 91-104 164-104 101 0 184 82 184 184 0 11-1 23-3 34" fill="none" stroke="#ffffff" stroke-width="34" stroke-linecap="round"/>
  <circle cx="790" cy="524" r="34" fill="#ffffff"/>
  <path d="M430 514h116c30 0 56 21 63 50l8 32" fill="none" stroke="#0b1220" stroke-width="22" stroke-linecap="round" opacity="0.25"/>
  <rect x="280" y="748" width="120" height="22" rx="11" fill="#22d3ee" opacity="0.75"/>
</svg>