<svg width="1024" height="1024" viewBox="0 0 1024 1024" xmlns="http://www.w3.org/2000/svg">
  <defs>
    <linearGradient id="bg" x1="0" y1="0" x2="1" y2="1">
      <stop offset="0%" stop-color="#0b1220"/>
      <stop offset="100%" stop-color="#121b2c"/>
    </linearGradient>
    <linearGradient id="arm" x1="0" y1="0" x2="1" y2="1">
      <stop offset="0%" stop-color="#22d3ee"/>
      <stop offset="100%" stop-color="#bef264"/>
    </linearGradient>
  </defs>
  <rect x="64" y="64" width="896" height="896" rx="220" fill="url(#bg)"/>
  <path d="M336 720c-52 0-94-42-94-94 0-28 12-55 32-74l118-108c22-20 51-31 81-31h102c58 0 111 31 139 82l46 84c10 18 7 41-8 56l-69 69c-14 14-36 20-56 16l-72-15c-33-7-68 3-92 27-17 17-39 26-63 26z" fill="url(#arm)"/>
  <path d="M432 402c44-58 113-94 190-94 133 0 240 107 240 240 0 7 0 14-1 21" fill="none" stroke="#ffffff" stroke-width="34" stroke-linecap="round"/>
  <circle cx="860" cy="568" r="28" fill="#ffffff"/>
  <path d="M450 498h116c40 0 77 22 97 57l26 46" fill="none" stroke="#09111f" stroke-width="24" stroke-linecap="round" opacity="0.25"/>
  <path d="M516 386c30 0 57 17 70 44" fill="none" stroke="#ffffff" stroke-width="18" stroke-linecap="round" opacity="0.8"/>
</svg>